<svg xmlns="http://www.w3.org/2000/svg"
 width="512.000000pt" height="512.000000pt" viewBox="0 0 512.000000 512.000000"
 preserveAspectRatio="xMidYMid meet">
<g transform="translate(0.000000,512.000000) scale(0.100000,-0.100000)"
fill="#000000" stroke="none">
<path d="M2257 5105 c-587 -71 -1129 -340 -1537 -761 -200 -207 -340 -407
-466 -669 -114 -236 -190 -479 -231 -745 -25 -163 -25 -567 0 -730 69 -441
241 -848 505 -1194 158 -206 392 -425 612 -571 111 -73 260 -155 282 -155 29
0 182 123 300 241 152 152 286 333 369 501 17 35 40 80 50 101 11 20 22 50 25
65 5 23 1 30 -21 40 -14 7 -33 12 -41 12 -8 0 -22 4 -32 9 -9 6 -61 30 -114
55 -294 135 -548 399 -683 711 -27 64 -32 76 -54 152 -38 126 -46 193 -46 393
0 213 8 276 56 421 120 369 383 672 722 832 224 107 382 140 645 136 l173 -3
14 29 c8 17 30 65 49 107 49 106 150 275 235 389 39 53 71 102 71 109 0 6 -16
30 -35 53 -37 43 -117 193 -127 237 -3 14 -13 51 -22 83 -9 32 -16 76 -16 97
0 33 -4 41 -22 45 -116 27 -478 32 -661 10z"/>
<path d="M3260 5008 c1 -30 49 -128 89 -180 48 -64 122 -118 214 -155 91 -37
218 -36 316 2 l71 28 -33 22 c-124 84 -347 191 -532 255 -134 46 -125 44 -125
28z"/>
<path d="M4140 4461 c-47 -32 -100 -57 -215 -101 -29 -11 -159 -30 -205 -30
-47 0 -177 19 -205 30 -81 32 -109 40 -115 33 -86 -94 -188 -247 -267 -402
-48 -96 -60 -127 -52 -137 6 -8 17 -14 23 -14 21 0 128 -56 216 -114 233 -152
432 -392 531 -643 5 -13 13 -33 18 -45 96 -240 108 -593 30 -862 -28 -97 -35
-117 -86 -224 -160 -337 -466 -602 -832 -721 -127 -42 -192 -53 -351 -60 -151
-7 -137 1 -177 -101 -59 -154 -246 -473 -331 -566 -9 -10 -28 -32 -40 -49 -31
-41 -168 -180 -249 -255 -36 -33 -63 -63 -60 -66 24 -25 317 -89 505 -110 166
-20 492 -14 652 11 534 83 1019 323 1404 695 217 210 374 427 511 705 124 251
199 489 242 765 25 163 25 567 0 730 -43 276 -118 514 -242 765 -93 189 -181
328 -308 485 -106 131 -297 320 -323 319 -10 0 -44 -17 -74 -38z"/>
<path d="M2360 3625 c-121 -29 -179 -48 -267 -90 -313 -148 -529 -430 -604
-790 -25 -118 -14 -347 21 -455 4 -14 14 -45 21 -70 7 -25 16 -49 19 -55 4 -5
15 -32 25 -59 28 -77 132 -223 220 -311 88 -88 234 -192 311 -220 27 -10 54
-21 59 -25 6 -3 30 -12 55 -19 25 -7 56 -17 70 -22 138 -45 393 -44 550 3 69
21 216 82 263 110 336 198 536 547 536 938 1 158 -11 224 -68 385 -19 55 -101
204 -135 249 -108 140 -247 258 -382 325 -49 25 -98 48 -109 52 -70 25 -140
45 -205 59 -64 14 -315 10 -380 -5z"/>
</g>
</svg>
